<svg width="17" height="20" viewBox="0 0 17 20" fill="none" xmlns="http://www.w3.org/2000/svg">
<path d="M5 15C4.71667 15 4.47933 14.904 4.288 14.712C4.09667 14.52 4.00067 14.2827 4 14C3.99933 13.7173 4.09533 13.48 4.288 13.288C4.48067 13.096 4.718 13 5 13C5.282 13 5.51967 13.096 5.713 13.288C5.90633 13.48 6.002 13.7173 6 14C5.998 14.2827 5.902 14.5203 5.712 14.713C5.522 14.9057 5.28467 15.0013 5 15ZM5 20C3.61667 20 2.43767 19.5123 1.463 18.537C0.488334 17.5617 0.000666667 16.3827 0 15V5C0 3.61667 0.487667 2.43767 1.463 1.463C2.43833 0.488334 3.61733 0.000667349 5 6.82594e-07C6.38267 -0.000665984 7.562 0.487001 8.538 1.463C9.514 2.439 10.0013 3.618 10 5V15C10 16.3833 9.51233 17.5627 8.537 18.538C7.56167 19.5133 6.38267 20.0007 5 20ZM5 16C5.55 16 6.021 15.8043 6.413 15.413C6.805 15.0217 7.00067 14.5507 7 14C6.99933 13.4493 6.80367 12.9787 6.413 12.588C6.02233 12.1973 5.55133 12.0013 5 12C4.44867 11.9987 3.978 12.1947 3.588 12.588C3.198 12.9813 3.002 13.452 3 14C2.998 14.548 3.194 15.019 3.588 15.413C3.982 15.807 4.45267 16.0027 5 16ZM5 8C5.55 8 6.021 7.80433 6.413 7.413C6.805 7.02167 7.00067 6.55067 7 6C6.99933 5.44933 6.80367 4.97867 6.413 4.588C6.02233 4.19733 5.55133 4.00133 5 4C4.44867 3.99867 3.978 4.19467 3.588 4.588C3.198 4.98133 3.002 5.452 3 6C2.998 6.548 3.194 7.019 3.588 7.413C3.982 7.807 4.45267 8.00267 5 8ZM11.675 13C11.3917 13 11.1543 12.904 10.963 12.712C10.7717 12.52 10.6757 12.2827 10.675 12C10.675 11.8667 10.7 11.7377 10.75 11.613C10.8 11.4883 10.8667 11.384 10.95 11.3C11.1333 11.1167 11.271 10.9167 11.363 10.7C11.455 10.4833 11.5007 10.25 11.5 10C11.4993 9.75 11.4537 9.51667 11.363 9.3C11.2723 9.08333 11.1347 8.88333 10.95 8.7C10.8667 8.6 10.8 8.49167 10.75 8.375C10.7 8.25833 10.675 8.13333 10.675 8C10.675 7.71667 10.771 7.47933 10.963 7.288C11.155 7.09667 11.3923 7.00067 11.675 7C11.8083 7 11.9377 7.02933 12.063 7.088C12.1883 7.14667 12.2923 7.21733 12.375 7.3C12.7417 7.66667 13.021 8.07933 13.213 8.538C13.405 8.99667 13.5007 9.484 13.5 10C13.4993 10.516 13.4033 11.0037 13.212 11.463C13.0207 11.9223 12.7417 12.3347 12.375 12.7C12.2917 12.7833 12.1877 12.8543 12.063 12.913C11.9383 12.9717 11.809 13.0007 11.675 13ZM14.35 15C14.0667 15 13.8293 14.904 13.638 14.712C13.4467 14.52 13.3507 14.2827 13.35 14C13.35 13.8667 13.3793 13.7377 13.438 13.613C13.4967 13.4883 13.5673 13.384 13.65 13.3C14.0833 12.8667 14.4167 12.3623 14.65 11.787C14.8833 11.2117 15 10.616 15 10C15 9.384 14.8833 8.78833 14.65 8.213C14.4167 7.63767 14.0833 7.13333 13.65 6.7C13.5667 6.61667 13.496 6.51267 13.438 6.388C13.38 6.26333 13.3507 6.134 13.35 6C13.35 5.71667 13.446 5.47933 13.638 5.288C13.83 5.09667 14.0673 5.00067 14.35 5C14.4833 5 14.6127 5.02933 14.738 5.088C14.8633 5.14667 14.9673 5.21733 15.05 5.3C15.6833 5.93333 16.1667 6.65 16.5 7.45C16.8333 8.25 17 9.1 17 10C17 10.9 16.8333 11.75 16.5 12.55C16.1667 13.35 15.6833 14.0667 15.05 14.7C14.9667 14.7833 14.8627 14.8543 14.738 14.913C14.6133 14.9717 14.484 15.0007 14.35 15Z" fill="#AE1916"/>
</svg>
