<svg width="39" height="43" viewBox="0 0 39 43" fill="none" xmlns="http://www.w3.org/2000/svg">
<path fill-rule="evenodd" clip-rule="evenodd" d="M1.17825 6.79925C0.375 7.9425 0.375 11.3425 0.375 18.1361V21.4809C0.375 33.4616 9.38288 39.2778 15.0354 41.7449C16.5675 42.4142 17.3346 42.75 19.5 42.75C21.6675 42.75 22.4325 42.4142 23.9646 41.7449C29.6171 39.2756 38.625 33.4637 38.625 21.4809V18.1361C38.625 11.3404 38.625 7.9425 37.8218 6.79925C37.0206 5.65812 33.8267 4.56375 27.4369 2.37712L26.2192 1.96063C22.8894 0.8195 21.2255 0.25 19.5 0.25C17.7745 0.25 16.1106 0.8195 12.7808 1.96063L11.5631 2.375C5.17325 4.56375 1.97938 5.65812 1.17825 6.79925ZM26.0025 18.3125C26.1419 18.1562 26.2491 17.974 26.3181 17.7763C26.3871 17.5786 26.4164 17.3692 26.4045 17.1602C26.3926 16.9511 26.3396 16.7464 26.2485 16.5578C26.1575 16.3693 26.0302 16.2005 25.8739 16.0611C25.7177 15.9217 25.5355 15.8144 25.3377 15.7455C25.14 15.6765 24.9307 15.6471 24.7216 15.6591C24.5125 15.671 24.3079 15.724 24.1193 15.815C23.9307 15.9061 23.7619 16.0334 23.6225 16.1896L17.2241 23.3594L15.3754 21.2896C15.0928 20.9774 14.6982 20.7897 14.2777 20.7675C13.8572 20.7453 13.445 20.8904 13.1312 21.1711C12.8173 21.4519 12.6273 21.8454 12.6027 22.2657C12.578 22.6861 12.7207 23.0991 12.9996 23.4146L16.0341 26.8146C16.1836 26.9821 16.3668 27.1161 16.5717 27.2078C16.7766 27.2996 16.9986 27.347 17.2231 27.347C17.4476 27.347 17.6695 27.2996 17.8744 27.2078C18.0793 27.1161 18.2625 26.9821 18.412 26.8146L26.0025 18.3125Z" fill="#C8BA9B"/>
</svg>
