<svg width="34" height="48" viewBox="0 0 34 48" fill="none" xmlns="http://www.w3.org/2000/svg">
<path d="M17 0C21.5087 0 25.8327 1.76999 29.0208 4.92061C32.2089 8.07122 34 12.3444 34 16.8C34 22.512 31.11 27.528 26.7143 30.576V36C26.7143 36.6365 26.4584 37.247 26.003 37.6971C25.5475 38.1471 24.9298 38.4 24.2857 38.4H9.71429C9.07019 38.4 8.45247 38.1471 7.99703 37.6971C7.54158 37.247 7.28571 36.6365 7.28571 36V30.576C2.89 27.528 0 22.512 0 16.8C0 12.3444 1.79107 8.07122 4.97918 4.92061C8.1673 1.76999 12.4913 0 17 0ZM9.71429 45.6V43.2H24.2857V45.6C24.2857 46.2365 24.0298 46.847 23.5744 47.2971C23.119 47.7471 22.5012 48 21.8571 48H12.1429C11.4988 48 10.881 47.7471 10.4256 47.2971C9.97015 46.847 9.71429 46.2365 9.71429 45.6ZM17 4.8C13.7795 4.8 10.6909 6.06428 8.4137 8.31472C6.13648 10.5652 4.85714 13.6174 4.85714 16.8C4.85714 21.72 7.84429 25.944 12.1429 27.792V33.6H21.8571V27.792C26.1557 25.944 29.1429 21.72 29.1429 16.8C29.1429 13.6174 27.8635 10.5652 25.5863 8.31472C23.3091 6.06428 20.2205 4.8 17 4.8Z" fill="#C8BA9B"/>
</svg>
