<svg width="52" height="57" viewBox="0 0 52 57" fill="none" xmlns="http://www.w3.org/2000/svg">
<path d="M0 23.3333H7.09091V28H0V23.3333ZM42.7818 5.83333L37.8182 10.7333L41.1272 14L46.0909 9.1L42.7818 5.83333ZM23.5472 0H28.3637V7H23.5472V0ZM9.21818 5.83333L5.90909 9.1L10.8728 14L14.1818 10.7333L9.21818 5.83333ZM44.9091 23.3333H52V28H44.9091V23.3333Z" fill="#01222F"/>
<path d="M26 9C30.5087 9 34.8327 10.77 38.0208 13.9206C41.2089 17.0712 43 21.3444 43 25.8C43 31.512 40.11 36.528 35.7143 39.576V45C35.7143 45.6365 35.4584 46.247 35.003 46.6971C34.5475 47.1471 33.9298 47.4 33.2857 47.4H18.7143C18.0702 47.4 17.4525 47.1471 16.997 46.6971C16.5416 46.247 16.2857 45.6365 16.2857 45V39.576C11.89 36.528 9 31.512 9 25.8C9 21.3444 10.7911 17.0712 13.9792 13.9206C17.1673 10.77 21.4913 9 26 9ZM18.7143 54.6V52.2H33.2857V54.6C33.2857 55.2365 33.0298 55.847 32.5744 56.2971C32.119 56.7471 31.5012 57 30.8571 57H21.1429C20.4988 57 19.881 56.7471 19.4256 56.2971C18.9702 55.847 18.7143 55.2365 18.7143 54.6ZM26 13.8C22.7795 13.8 19.6909 15.0643 17.4137 17.3147C15.1365 19.5652 13.8571 22.6174 13.8571 25.8C13.8571 30.72 16.8443 34.944 21.1429 36.792V42.6H30.8571V36.792C35.1557 34.944 38.1429 30.72 38.1429 25.8C38.1429 22.6174 36.8635 19.5652 34.5863 17.3147C32.3091 15.0643 29.2205 13.8 26 13.8Z" fill="#01222F"/>
</svg>
