<svg width="19" height="18" viewBox="0 0 19 18" fill="none" xmlns="http://www.w3.org/2000/svg">
<path d="M0 11C0 9.25 0.416667 7.69167 1.25 6.325C2.08333 4.95833 3 3.80833 4 2.875C5 1.94167 5.91667 1.229 6.75 0.737L8 0V3.3C8 3.91667 8.20833 4.404 8.625 4.762C9.04167 5.12 9.50833 5.29933 10.025 5.3C10.3083 5.3 10.5793 5.24167 10.838 5.125C11.0967 5.00833 11.334 4.81667 11.55 4.55L12 4C13.2 4.7 14.1667 5.67067 14.9 6.912C15.6333 8.15333 16 9.516 16 11C16 12.4667 15.6417 13.8043 14.925 15.013C14.2083 16.2217 13.2667 17.1753 12.1 17.874C12.3833 17.474 12.6043 17.0367 12.763 16.562C12.9217 16.0873 13.0007 15.5833 13 15.05C13 14.3833 12.875 13.754 12.625 13.162C12.375 12.57 12.0167 12.041 11.55 11.575L8 8.1L4.475 11.575C3.99167 12.0583 3.625 12.5917 3.375 13.175C3.125 13.7583 3 14.3833 3 15.05C3 15.5833 3.07933 16.0877 3.238 16.563C3.39667 17.0383 3.61733 17.4757 3.9 17.875C2.73333 17.175 1.79167 16.2207 1.075 15.012C0.358333 13.8033 0 12.466 0 11ZM8 10.9L10.125 12.975C10.4083 13.2583 10.625 13.575 10.775 13.925C10.925 14.275 11 14.65 11 15.05C11 15.8667 10.7083 16.5627 10.125 17.138C9.54167 17.7133 8.83333 18.0007 8 18C7.16667 17.9993 6.45833 17.712 5.875 17.138C5.29167 16.564 5 15.868 5 15.05C5 14.6667 5.075 14.296 5.225 13.938C5.375 13.58 5.59167 13.259 5.875 12.975L8 10.9ZM18 8C17.7167 8 17.4793 7.904 17.288 7.712C17.0967 7.52 17.0007 7.28267 17 7C16.9993 6.71733 17.0953 6.48 17.288 6.288C17.4807 6.096 17.718 6 18 6C18.282 6 18.5197 6.096 18.713 6.288C18.9063 6.48 19.002 6.71733 19 7C18.998 7.28267 18.902 7.52033 18.712 7.713C18.522 7.90567 18.2847 8.00133 18 8ZM17 5V0H19V5H17Z" fill="#AE1916"/>
</svg>
