<svg width="54" height="54" viewBox="0 0 54 54" fill="none" xmlns="http://www.w3.org/2000/svg">
<path fill-rule="evenodd" clip-rule="evenodd" d="M15.5 17.25C15.5 11.0355 20.5355 6 26.75 6C32.9645 6 38 11.0355 38 17.25V24H38.9C40.88 24 42.5 25.62 42.5 27.6V43.35C42.5 46.32 40.07 48.75 37.1 48.75H16.4C13.43 48.75 11 46.32 11 43.35V27.6C11 25.62 12.62 24 14.6 24H15.5V17.25ZM33.5 17.25V24H20V17.25C20 13.5195 23.0195 10.5 26.75 10.5C30.4805 10.5 33.5 13.5195 33.5 17.25ZM26.75 29.0625C25.8553 29.0616 24.9869 29.3654 24.2879 29.9239C23.5889 30.4825 23.101 31.2624 22.9045 32.1353C22.708 33.0082 22.8147 33.922 23.207 34.7262C23.5992 35.5304 24.2537 36.177 25.0625 36.5595V42C25.0625 42.4476 25.2403 42.8768 25.5568 43.1932C25.8732 43.5097 26.3024 43.6875 26.75 43.6875C27.1976 43.6875 27.6268 43.5097 27.9432 43.1932C28.2597 42.8768 28.4375 42.4476 28.4375 42V36.5595C29.2463 36.177 29.9008 35.5304 30.293 34.7262C30.6853 33.922 30.792 33.0082 30.5955 32.1353C30.399 31.2624 29.9111 30.4825 29.2121 29.9239C28.5131 29.3654 27.6447 29.0616 26.75 29.0625Z" fill="#01222F"/>
</svg>
