<svg width="36" height="26" viewBox="0 0 36 26" fill="none" xmlns="http://www.w3.org/2000/svg">
<path d="M5.35511 0C2.38701 0 0 2.40336 0 5.39205V11.4242H6.30303V5.12121H2.75758V4.54261C2.75758 3.8621 3.73589 2.75758 4.82576 2.75758H6.30303V0H5.35511ZM14.8097 0C11.8416 0 9.45455 2.40336 9.45455 5.39205V11.4242H15.7576V5.12121H12.2121V4.54261C12.2121 3.8621 13.1904 2.75758 14.2803 2.75758H15.7576V0H14.8097ZM19.697 14.5758V20.8788H23.2424V21.4574C23.2424 22.1379 22.2641 23.2424 21.1742 23.2424H19.697V26H20.6449C23.613 26 26 23.5966 26 20.608V14.5758H19.697ZM29.1515 14.5758V20.8788H32.697V21.4574C32.697 22.1379 31.7187 23.2424 30.6288 23.2424H29.1515V26H30.0994C33.0675 26 35.4545 23.5966 35.4545 20.608V14.5758H29.1515Z" fill="#C8BA9B"/>
</svg>
