<svg width="22" height="21" viewBox="0 0 22 21" fill="none" xmlns="http://www.w3.org/2000/svg">
<path d="M3.53418 6.125C3.53418 5.66087 3.71855 5.21575 4.04674 4.88756C4.37493 4.55937 4.82005 4.375 5.28418 4.375H17.5342C17.9983 4.375 18.4434 4.55937 18.7716 4.88756C19.0998 5.21575 19.2842 5.66087 19.2842 6.125V14.875C19.2842 15.3391 19.0998 15.7842 18.7716 16.1124C18.4434 16.4406 17.9983 16.625 17.5342 16.625H5.28418C4.82005 16.625 4.37493 16.4406 4.04674 16.1124C3.71855 15.7842 3.53418 15.3391 3.53418 14.875V6.125Z" stroke="#C8BA9B" stroke-width="2" stroke-linecap="round" stroke-linejoin="round"/>
<path d="M3.53418 6.125L11.4092 11.375L19.2842 6.125" stroke="#C8BA9B" stroke-width="2" stroke-linecap="round" stroke-linejoin="round"/>
</svg>
