<svg width="32" height="32" viewBox="0 0 32 32" fill="none" xmlns="http://www.w3.org/2000/svg">
<path d="M5.91674 14.1656C5.67361 14.1656 5.44043 14.069 5.26851 13.8971C5.09659 13.7252 5 13.492 5 13.2489V5.91674C5 5.67361 5.09659 5.44043 5.26851 5.26851C5.44043 5.09659 5.67361 5 5.91674 5H13.2507C13.4938 5 13.727 5.09659 13.8989 5.26851C14.0708 5.44043 14.1674 5.67361 14.1674 5.91674V13.2489C14.1674 13.492 14.0708 13.7252 13.8989 13.8971C13.727 14.069 13.4938 14.1656 13.2507 14.1656H5.91674ZM18.7511 14.1656C18.508 14.1656 18.2748 14.069 18.1029 13.8971C17.931 13.7252 17.8344 13.492 17.8344 13.2489V5.91674C17.8344 5.67361 17.931 5.44043 18.1029 5.26851C18.2748 5.09659 18.508 5 18.7511 5H26.0833C26.3264 5 26.5596 5.09659 26.7315 5.26851C26.9034 5.44043 27 5.67361 27 5.91674V13.2489C27 13.492 26.9034 13.7252 26.7315 13.8971C26.5596 14.069 26.3264 14.1656 26.0833 14.1656H18.7511ZM5.91674 27C5.67361 27 5.44043 26.9034 5.26851 26.7315C5.09659 26.5596 5 26.3264 5 26.0833V18.7493C5 18.5062 5.09659 18.273 5.26851 18.1011C5.44043 17.9292 5.67361 17.8326 5.91674 17.8326H13.2507C13.4938 17.8326 13.727 17.9292 13.8989 18.1011C14.0708 18.273 14.1674 18.5062 14.1674 18.7493V26.0833C14.1674 26.3264 14.0708 26.5596 13.8989 26.7315C13.727 26.9034 13.4938 27 13.2507 27H5.91674ZM18.7511 27C18.508 27 18.2748 26.9034 18.1029 26.7315C17.931 26.5596 17.8344 26.3264 17.8344 26.0833V18.7493C17.8344 18.5062 17.931 18.273 18.1029 18.1011C18.2748 17.9292 18.508 17.8326 18.7511 17.8326H26.0833C26.3264 17.8326 26.5596 17.9292 26.7315 18.1011C26.9034 18.273 27 18.5062 27 18.7493V26.0833C27 26.3264 26.9034 26.5596 26.7315 26.7315C26.5596 26.9034 26.3264 27 26.0833 27H18.7511Z" fill="#C8BA9B"/>
</svg>
