<svg width="84" height="28" viewBox="0 0 84 28" fill="none" xmlns="http://www.w3.org/2000/svg">
<path d="M2.8 13.3C2.8 13.1143 2.87375 12.9363 3.00503 12.805C3.1363 12.6737 3.31435 12.6 3.5 12.6H24.5C24.6857 12.6 24.8637 12.6737 24.995 12.805C25.1263 12.9363 25.2 13.1143 25.2 13.3C25.2 13.4857 25.1263 13.6637 24.995 13.795C24.8637 13.9262 24.6857 14 24.5 14H3.5C3.31435 14 3.1363 13.9262 3.00503 13.795C2.87375 13.6637 2.8 13.4857 2.8 13.3Z" fill="#C8BA9B"/>
<path d="M30.8 13.3C30.8 13.1143 30.8737 12.9363 31.005 12.805C31.1363 12.6737 31.3143 12.6 31.5 12.6H52.5C52.6856 12.6 52.8637 12.6737 52.995 12.805C53.1262 12.9363 53.2 13.1143 53.2 13.3C53.2 13.4857 53.1262 13.6637 52.995 13.795C52.8637 13.9262 52.6856 14 52.5 14H31.5C31.3143 14 31.1363 13.9262 31.005 13.795C30.8737 13.6637 30.8 13.4857 30.8 13.3Z" fill="#EBE1CC"/>
<path d="M58.8 13.3C58.8 13.1143 58.8737 12.9363 59.005 12.805C59.1363 12.6737 59.3143 12.6 59.5 12.6H80.5C80.6856 12.6 80.8637 12.6737 80.995 12.805C81.1262 12.9363 81.2 13.1143 81.2 13.3C81.2 13.4857 81.1262 13.6637 80.995 13.795C80.8637 13.9262 80.6856 14 80.5 14H59.5C59.3143 14 59.1363 13.9262 59.005 13.795C58.8737 13.6637 58.8 13.4857 58.8 13.3Z" fill="#C8BA9B"/>
</svg>
