<svg width="23" height="23" viewBox="0 0 23 23" fill="none" xmlns="http://www.w3.org/2000/svg">
<path d="M6.97751 10.3908C8.29751 12.985 10.4242 15.1117 13.0183 16.4317L15.035 14.415C15.2917 14.1583 15.6492 14.085 15.97 14.1858C16.9967 14.525 18.0967 14.7083 19.2425 14.7083C19.4856 14.7083 19.7188 14.8049 19.8907 14.9768C20.0626 15.1487 20.1592 15.3819 20.1592 15.625V18.8333C20.1592 19.0764 20.0626 19.3096 19.8907 19.4815C19.7188 19.6534 19.4856 19.75 19.2425 19.75C15.1096 19.75 11.1459 18.1082 8.22343 15.1857C5.30099 12.2633 3.65918 8.29962 3.65918 4.16667C3.65918 3.92355 3.75576 3.69039 3.92767 3.51849C4.09957 3.34658 4.33273 3.25 4.57585 3.25H7.78418C8.0273 3.25 8.26045 3.34658 8.43236 3.51849C8.60427 3.69039 8.70085 3.92355 8.70085 4.16667C8.70085 5.3125 8.88418 6.4125 9.22335 7.43917C9.32418 7.76 9.25085 8.1175 8.99418 8.37417L6.97751 10.3908Z" fill="#C8BA9B"/>
</svg>
