<svg width="24" height="24" viewBox="0 0 24 24" fill="none" xmlns="http://www.w3.org/2000/svg">
<path d="M7.39048 16.5391C6.00194 15.5599 4.96122 14.164 4.41911 12.5537C3.877 10.9435 3.86164 9.2024 4.37527 7.58282C4.88891 5.96324 5.90484 4.54925 7.27589 3.54571C8.64695 2.54218 10.3019 2.00122 12.001 2.00122C13.7001 2.00122 15.355 2.54218 16.7261 3.54571C18.0971 4.54925 19.1131 5.96324 19.6267 7.58282C20.1403 9.2024 20.125 10.9435 19.5828 12.5537C19.0407 14.164 18 15.5599 16.6115 16.5391L18.6945 21.2991C18.7279 21.3752 18.7418 21.4586 18.7349 21.5415C18.728 21.6244 18.7006 21.7043 18.655 21.774C18.6094 21.8436 18.5471 21.9007 18.4739 21.9402C18.4006 21.9797 18.3187 22.0003 18.2355 22.0001H5.76548C5.68239 22.0002 5.60059 21.9796 5.52745 21.9402C5.45432 21.9007 5.39217 21.8437 5.34661 21.7742C5.30105 21.7047 5.27352 21.625 5.26652 21.5422C5.25951 21.4594 5.27324 21.3762 5.30648 21.3001L7.39048 16.5391ZM8.11948 10.9701C8.33667 11.835 8.83653 12.6026 9.53974 13.1511C10.2429 13.6995 11.1092 13.9974 12.001 13.9974C12.8928 13.9974 13.759 13.6995 14.4622 13.1511C15.1654 12.6026 15.6653 11.835 15.8825 10.9701L13.9415 10.4851C13.8338 10.9184 13.5842 11.3033 13.2325 11.5784C12.8807 11.8534 12.447 12.0029 12.0005 12.0029C11.5539 12.0029 11.1202 11.8534 10.7685 11.5784C10.4167 11.3033 10.1671 10.9184 10.0595 10.4851L8.11948 10.9701Z" fill="#C8BA9B"/>
</svg>
