<svg width="26" height="26" viewBox="0 0 26 26" fill="none" xmlns="http://www.w3.org/2000/svg">
<path d="M8.00594 17.9173C6.5017 16.8565 5.37425 15.3443 4.78696 13.5999C4.19967 11.8554 4.18304 9.96925 4.73947 8.2147C5.29591 6.46015 6.39651 4.92833 7.88181 3.84117C9.36712 2.754 11.16 2.16797 13.0007 2.16797C14.8413 2.16797 16.6342 2.754 18.1195 3.84117C19.6048 4.92833 20.7054 6.46015 21.2618 8.2147C21.8183 9.96925 21.8016 11.8554 21.2143 13.5999C20.6271 15.3443 19.4996 16.8565 17.9954 17.9173L20.2519 23.074C20.2882 23.1565 20.3032 23.2468 20.2958 23.3366C20.2883 23.4265 20.2585 23.513 20.2091 23.5884C20.1598 23.6638 20.0923 23.7258 20.013 23.7685C19.9336 23.8113 19.8448 23.8336 19.7547 23.8334H6.24553C6.15552 23.8335 6.0669 23.8112 5.98767 23.7685C5.90844 23.7258 5.84111 23.664 5.79175 23.5887C5.7424 23.5135 5.71257 23.4271 5.70498 23.3374C5.69739 23.2477 5.71227 23.1575 5.74828 23.075L8.00594 17.9173ZM15.3022 17.1665L16.7452 16.1471C17.8737 15.3517 18.7197 14.2177 19.1605 12.9093C19.6013 11.6009 19.614 10.1861 19.1968 8.87C18.7796 7.55388 17.9542 6.40479 16.8401 5.58925C15.7261 4.77371 14.3813 4.33408 13.0007 4.33408C11.62 4.33408 10.2752 4.77371 9.16115 5.58925C8.04711 6.40479 7.22168 7.55388 6.80449 8.87C6.3873 10.1861 6.40003 11.6009 6.84082 12.9093C7.28161 14.2177 8.12757 15.3517 9.25611 16.1471L10.698 17.1665L8.72961 21.6667H17.2706L15.3022 17.1665ZM8.79569 11.8842L10.8974 11.3588C11.014 11.8283 11.2844 12.2452 11.6655 12.5432C12.0465 12.8412 12.5164 13.0031 13.0001 13.0031C13.4839 13.0031 13.9537 12.8412 14.3348 12.5432C14.7158 12.2452 14.9862 11.8283 15.1029 11.3588L17.2045 11.8842C16.9688 12.8207 16.4272 13.6518 15.6656 14.2455C14.9039 14.8392 13.9658 15.1617 13.0001 15.1617C12.0344 15.1617 11.0963 14.8392 10.3346 14.2455C9.57299 13.6518 9.03137 12.8207 8.79569 11.8842Z" fill="#C8BA9B"/>
</svg>
