<svg width="51" height="51" viewBox="0 0 51 51" fill="none" xmlns="http://www.w3.org/2000/svg">
<path fill-rule="evenodd" clip-rule="evenodd" d="M7.18313 10.7992C6.37988 11.9425 6.37988 15.3425 6.37988 22.1361V25.4809C6.37988 37.4616 15.3878 43.2778 21.0403 45.7449C22.5724 46.4143 23.3395 46.75 25.5049 46.75C27.6724 46.75 28.4374 46.4143 29.9695 45.7449C35.622 43.2756 44.6299 37.4638 44.6299 25.4809V22.1361C44.6299 15.3404 44.6299 11.9425 43.8266 10.7992C43.0255 9.65812 39.8316 8.56375 33.4418 6.37712L32.2241 5.96063C28.8943 4.8195 27.2304 4.25 25.5049 4.25C23.7794 4.25 22.1155 4.8195 18.7856 5.96063L17.568 6.375C11.1781 8.56375 7.98426 9.65812 7.18313 10.7992ZM21.3186 19.0613C21.1727 18.9047 20.9968 18.7791 20.8013 18.692C20.6058 18.6049 20.3947 18.558 20.1807 18.5542C19.9667 18.5505 19.7542 18.5898 19.5557 18.67C19.3573 18.7501 19.177 18.8695 19.0257 19.0208C18.8743 19.1721 18.755 19.3524 18.6749 19.5509C18.5947 19.7493 18.5553 19.9619 18.5591 20.1759C18.5629 20.3899 18.6097 20.6009 18.6968 20.7964C18.784 20.9919 18.9095 21.1678 19.0661 21.3138L23.2524 25.5L19.0661 29.6863C18.9095 29.8322 18.784 30.0081 18.6968 30.2036C18.6097 30.3991 18.5629 30.6101 18.5591 30.8241C18.5553 31.0381 18.5947 31.2507 18.6749 31.4491C18.755 31.6476 18.8743 31.8279 19.0257 31.9792C19.177 32.1305 19.3573 32.2499 19.5557 32.33C19.7542 32.4102 19.9667 32.4495 20.1807 32.4458C20.3947 32.442 20.6058 32.3951 20.8013 32.308C20.9968 32.2209 21.1727 32.0953 21.3186 31.9388L25.5049 27.7525L29.6911 31.9388C29.9933 32.2203 30.3929 32.3735 30.8057 32.3662C31.2186 32.359 31.6126 32.1917 31.9046 31.8997C32.1966 31.6077 32.3638 31.2138 32.3711 30.8009C32.3784 30.388 32.2252 29.9884 31.9436 29.6863L27.7574 25.5L31.9436 21.3138C32.1002 21.1678 32.2258 20.9919 32.3129 20.7964C32.4 20.6009 32.4469 20.3899 32.4506 20.1759C32.4544 19.9619 32.4151 19.7493 32.3349 19.5509C32.2547 19.3524 32.1354 19.1721 31.9841 19.0208C31.8327 18.8695 31.6525 18.7501 31.454 18.67C31.2556 18.5898 31.043 18.5505 30.829 18.5542C30.615 18.558 30.404 18.6049 30.2085 18.692C30.013 18.7791 29.837 18.9047 29.6911 19.0613L25.5049 23.2475L21.3186 19.0613Z" fill="#01222F"/>
</svg>
