<svg width="164" height="24" viewBox="0 0 164 24" fill="none" xmlns="http://www.w3.org/2000/svg">
<path d="M10.488 14.651L15.25 21H22.25L14.392 10.522L20.93 3H18.28L13.163 8.886L8.75 3H1.75L9.26 13.015L2.32 21H4.97L10.488 14.651ZM16.25 19L5.75 5H7.75L18.25 19H16.25Z" fill="#C8BA9B"/>
<path d="M55.625 2.625H38.375C37.9602 2.625 37.625 2.96016 37.625 3.375V20.625C37.625 21.0398 37.9602 21.375 38.375 21.375H55.625C56.0398 21.375 56.375 21.0398 56.375 20.625V3.375C56.375 2.96016 56.0398 2.625 55.625 2.625ZM43.1867 18.6023H40.4047V9.65391H43.1867V18.6023ZM41.7969 8.43047C41.478 8.43047 41.1662 8.3359 40.901 8.15871C40.6358 7.98153 40.4292 7.72969 40.3071 7.43505C40.1851 7.1404 40.1531 6.81618 40.2154 6.50339C40.2776 6.19059 40.4312 5.90327 40.6567 5.67776C40.8822 5.45225 41.1695 5.29867 41.4823 5.23645C41.7951 5.17423 42.1193 5.20617 42.414 5.32821C42.7086 5.45026 42.9604 5.65694 43.1376 5.92211C43.3148 6.18729 43.4094 6.49905 43.4094 6.81797C43.407 7.70859 42.6852 8.43047 41.7969 8.43047ZM53.6023 18.6023H50.8227V14.25C50.8227 13.2117 50.8039 11.8781 49.3766 11.8781C47.9305 11.8781 47.7078 13.0078 47.7078 14.175V18.6023H44.9305V9.65391H47.5977V10.8773H47.6352C48.0055 10.1742 48.9125 9.43125 50.2672 9.43125C53.0844 9.43125 53.6023 11.2852 53.6023 13.6945V18.6023Z" fill="#C8BA9B"/>
<path d="M90.9 2H73.1C72.8083 2 72.5285 2.11589 72.3222 2.32218C72.1159 2.52847 72 2.80826 72 3.1V20.9C72 21.1917 72.1159 21.4715 72.3222 21.6778C72.5285 21.8841 72.8083 22 73.1 22H82.68V14.25H80.08V11.25H82.68V9C82.6261 8.47176 82.6885 7.93813 82.8627 7.43654C83.0369 6.93495 83.3188 6.47755 83.6885 6.09641C84.0582 5.71528 84.5068 5.41964 85.0028 5.23024C85.4989 5.04083 86.0304 4.96225 86.56 5C87.3383 4.99463 88.1163 5.03469 88.89 5.12V7.82H87.3C86.04 7.82 85.8 8.42 85.8 9.29V11.22H88.8L88.41 14.22H85.8V22H90.9C91.0445 22 91.1875 21.9715 91.321 21.9163C91.4544 21.861 91.5757 21.78 91.6778 21.6778C91.78 21.5757 91.861 21.4544 91.9163 21.321C91.9715 21.1875 92 21.0445 92 20.9V3.1C92 2.95555 91.9715 2.81251 91.9163 2.67905C91.861 2.54559 91.78 2.42433 91.6778 2.32218C91.5757 2.22004 91.4544 2.13901 91.321 2.08373C91.1875 2.02845 91.0445 2 90.9 2Z" fill="#C8BA9B"/>
<path d="M122 8.5C122.828 8.5 123.5 7.82843 123.5 7C123.5 6.17157 122.828 5.5 122 5.5C121.172 5.5 120.5 6.17157 120.5 7C120.5 7.82843 121.172 8.5 122 8.5Z" fill="#C8BA9B"/>
<path d="M121 3C123.76 3 126 5.24 126 8V16C126 18.76 123.76 21 121 21H113C110.24 21 108 18.76 108 16V8C108 5.24 110.24 3 113 3H117H121Z" stroke="#C8BA9B" stroke-width="2" stroke-linecap="round" stroke-linejoin="round"/>
<path d="M117 8C119.21 8 121 9.79 121 12C121 14.21 119.21 16 117 16C114.79 16 113 14.21 113 12C113 9.79 114.79 8 117 8Z" stroke="#C8BA9B" stroke-width="2" stroke-linecap="round" stroke-linejoin="round"/>
<path d="M152 2C146.48 2 142 6.48 142 12C142 17.52 146.48 22 152 22C157.52 22 162 17.52 162 12C162 6.48 157.52 2 152 2ZM156.64 8.8C156.49 10.38 155.84 14.22 155.51 15.99C155.37 16.74 155.09 16.99 154.83 17.02C154.25 17.07 153.81 16.64 153.25 16.27C152.37 15.69 151.87 15.33 151.02 14.77C150.03 14.12 150.67 13.76 151.24 13.18C151.39 13.03 153.95 10.7 154 10.49C154.007 10.4582 154.006 10.4252 153.997 10.3938C153.989 10.3624 153.972 10.3337 153.95 10.31C153.89 10.26 153.81 10.28 153.74 10.29C153.65 10.31 152.25 11.24 149.52 13.08C149.12 13.35 148.76 13.49 148.44 13.48C148.08 13.47 147.4 13.28 146.89 13.11C146.26 12.91 145.77 12.8 145.81 12.45C145.83 12.27 146.08 12.09 146.55 11.9C149.47 10.63 151.41 9.79 152.38 9.39C155.16 8.23 155.73 8.03 156.11 8.03C156.19 8.03 156.38 8.05 156.5 8.15C156.6 8.23 156.63 8.34 156.64 8.42C156.63 8.48 156.65 8.66 156.64 8.8Z" fill="#C8BA9B"/>
</svg>
