<svg width="23" height="52" viewBox="0 0 23 52" fill="none" xmlns="http://www.w3.org/2000/svg">
<path d="M5.12016 40.25V35.3043M5.12016 35.3043V26.4728C5.12016 25.817 5.38069 25.188 5.84443 24.7243C6.30818 24.2605 6.93715 24 7.59299 24C8.24882 24 8.87779 24.2605 9.34154 24.7243C9.80528 25.188 10.0658 25.817 10.0658 26.4728V33.8913L14.4137 34.5667C17.1395 34.9751 18.5017 35.18 19.4611 35.7537C21.0466 36.7047 22.1954 38.1304 22.1954 40.2133C22.1954 41.663 21.8365 42.6366 20.966 45.2508C20.4121 46.9097 20.1366 47.7377 19.6858 48.3948C18.9432 49.476 17.8477 50.2653 16.587 50.6274C15.8226 50.8478 14.9479 50.8478 13.1999 50.8478H11.2146C8.69233 50.8478 7.4319 50.8478 6.34951 50.3745C5.86001 50.1606 5.40329 49.8785 4.99299 49.5365C4.08581 48.7805 3.52342 47.6529 2.3944 45.3963C1.48016 43.5678 1.02375 42.655 1.00114 41.7054C0.991233 41.2781 1.04602 40.8517 1.16364 40.4408C1.42364 39.5279 2.09625 38.7592 3.44429 37.219L5.12016 35.3043Z" stroke="white" stroke-width="1.5" stroke-linecap="round" stroke-linejoin="round"/>
<path d="M8.16976 1.20105C7.95449 0.98605 7.66268 0.865287 7.35843 0.865287C7.05419 0.865287 6.76238 0.98605 6.54711 1.20105L3.10282 4.64381C2.90002 4.86145 2.78961 5.14932 2.79486 5.44675C2.80011 5.74419 2.9206 6.02797 3.13095 6.23833C3.3413 6.44868 3.62509 6.56917 3.92253 6.57442C4.21996 6.57967 4.50782 6.46926 4.72546 6.26646L7.35843 3.63808L9.99141 6.26952C10.0974 6.37912 10.2241 6.46653 10.3642 6.52663C10.5043 6.58674 10.655 6.61834 10.8074 6.61959C10.9598 6.62084 11.111 6.59172 11.2521 6.53393C11.3932 6.47613 11.5213 6.39082 11.629 6.28297C11.7368 6.17513 11.822 6.0469 11.8796 5.90578C11.9373 5.76465 11.9663 5.61346 11.9649 5.46101C11.9635 5.30857 11.9317 5.15793 11.8715 5.01789C11.8113 4.87785 11.7238 4.7512 11.614 4.64535L8.16976 1.20105ZM7.35843 12.258C7.68323 12.258 7.99472 12.387 8.22438 12.6167C8.45405 12.8464 8.58307 13.1578 8.58307 13.4826C8.58307 13.8074 8.45405 14.1189 8.22438 14.3486C7.99472 14.5783 7.68323 14.7073 7.35843 14.7073C7.03364 14.7073 6.72215 14.5783 6.49248 14.3486C6.26282 14.1189 6.1338 13.8074 6.1338 13.4826C6.1338 13.1578 6.26282 12.8464 6.49248 12.6167C6.72215 12.387 7.03364 12.258 7.35843 12.258ZM8.58307 9.17191C8.58307 9.01109 8.5514 8.85184 8.48985 8.70326C8.42831 8.55468 8.3381 8.41968 8.22438 8.30596C8.11067 8.19224 7.97566 8.10204 7.82708 8.04049C7.6785 7.97895 7.51926 7.94727 7.35843 7.94727C7.19761 7.94727 7.03837 7.97895 6.88979 8.04049C6.74121 8.10204 6.6062 8.19224 6.49248 8.30596C6.37877 8.41968 6.28856 8.55468 6.22702 8.70326C6.16547 8.85184 6.1338 9.01109 6.1338 9.17191C6.1338 9.49671 6.26282 9.8082 6.49248 10.0379C6.72215 10.2675 7.03364 10.3966 7.35843 10.3966C7.68323 10.3966 7.99472 10.2675 8.22438 10.0379C8.45405 9.8082 8.58307 9.49671 8.58307 9.17191Z" fill="white"/>
</svg>
