<svg width="54" height="54" viewBox="0 0 54 54" fill="none" xmlns="http://www.w3.org/2000/svg">
<path fill-rule="evenodd" clip-rule="evenodd" d="M15.75 15.75C15.7462 13.0091 16.7432 10.3611 18.5537 8.30329C20.3642 6.24547 22.8636 4.9194 25.5827 4.5741C28.3017 4.22879 31.0533 4.88802 33.3207 6.42797C35.5881 7.96792 37.2153 10.2827 37.8968 12.9375C38.0459 13.5154 37.9594 14.129 37.6562 14.6431C37.3531 15.1573 36.8581 15.5299 36.2801 15.6791C35.7022 15.8283 35.0887 15.7418 34.5745 15.4386C34.0603 15.1354 33.6877 14.6404 33.5385 14.0625C33.13 12.4692 32.1538 11.0799 30.7932 10.1555C29.4326 9.2312 27.7814 8.83547 26.1496 9.04268C24.5179 9.2499 23.018 10.0458 21.9316 11.2809C20.8453 12.5159 20.2473 14.1051 20.25 15.75V22.5H39.15C41.13 22.5 42.75 24.12 42.75 26.1V41.85C42.75 44.82 40.32 47.25 37.35 47.25H16.65C13.68 47.25 11.25 44.82 11.25 41.85V26.1C11.25 24.12 12.87 22.5 14.85 22.5H15.75V15.75ZM27 27.5625C26.1053 27.5616 25.2369 27.8654 24.5379 28.4239C23.8389 28.9825 23.351 29.7624 23.1545 30.6353C22.958 31.5082 23.0647 32.422 23.457 33.2262C23.8492 34.0304 24.5037 34.677 25.3125 35.0595V40.5C25.3125 40.9475 25.4903 41.3768 25.8068 41.6932C26.1232 42.0097 26.5524 42.1875 27 42.1875C27.4476 42.1875 27.8768 42.0097 28.1932 41.6932C28.5097 41.3768 28.6875 40.9475 28.6875 40.5V35.0595C29.4963 34.677 30.1508 34.0304 30.543 33.2262C30.9353 32.422 31.042 31.5082 30.8455 30.6353C30.649 29.7624 30.1611 28.9825 29.4621 28.4239C28.7631 27.8654 27.8947 27.5616 27 27.5625Z" fill="#C8BA9B"/>
</svg>
