<svg width="22" height="21" viewBox="0 0 22 21" fill="none" xmlns="http://www.w3.org/2000/svg">
<path d="M17.5781 4.2963C16.7758 3.48614 15.8203 2.84377 14.7672 2.40661C13.7141 1.96946 12.5846 1.74627 11.4444 1.75005C6.66688 1.75005 2.77313 5.6438 2.77313 10.4213C2.77313 11.9525 3.17563 13.44 3.92813 14.7525L2.70312 19.25L7.29688 18.0425C8.56563 18.7338 9.99188 19.1013 11.4444 19.1013C16.2219 19.1013 20.1156 15.2075 20.1156 10.43C20.1156 8.1113 19.2144 5.93255 17.5781 4.2963ZM11.4444 17.6313C10.1494 17.6313 8.88063 17.2813 7.76938 16.625L7.50688 16.4675L4.77688 17.185L5.50313 14.525L5.32813 14.2538C4.60848 13.105 4.22643 11.7769 4.22563 10.4213C4.22563 6.4488 7.46312 3.2113 11.4356 3.2113C13.3606 3.2113 15.1719 3.9638 16.5281 5.3288C17.1998 5.99718 17.7321 6.79227 18.094 7.66796C18.456 8.54365 18.6405 9.4825 18.6369 10.43C18.6544 14.4025 15.4169 17.6313 11.4444 17.6313ZM15.3994 12.2413C15.1806 12.1363 14.1131 11.6113 13.9206 11.5325C13.7194 11.4625 13.5794 11.4275 13.4306 11.6375C13.2819 11.8563 12.8706 12.3463 12.7481 12.4863C12.6256 12.635 12.4944 12.6525 12.2756 12.5388C12.0569 12.4338 11.3569 12.1975 10.5344 11.4625C9.88688 10.885 9.45813 10.1763 9.32688 9.95755C9.20438 9.7388 9.30937 9.62505 9.42312 9.5113C9.51937 9.41505 9.64188 9.25755 9.74688 9.13505C9.85188 9.01255 9.89563 8.9163 9.96563 8.7763C10.0356 8.62755 10.0006 8.50505 9.94813 8.40005C9.89563 8.29505 9.45813 7.22755 9.28312 6.79005C9.10813 6.37005 8.92438 6.42255 8.79313 6.4138H8.37313C8.22437 6.4138 7.99688 6.4663 7.79563 6.68505C7.60313 6.9038 7.04313 7.4288 7.04313 8.4963C7.04313 9.5638 7.82188 10.5963 7.92688 10.7363C8.03188 10.885 9.45813 13.0725 11.6281 14.0088C12.1444 14.2363 12.5469 14.3675 12.8619 14.4638C13.3781 14.63 13.8506 14.6038 14.2269 14.5513C14.6469 14.49 15.5131 14.0263 15.6881 13.5188C15.8719 13.0113 15.8719 12.5825 15.8106 12.4863C15.7494 12.39 15.6181 12.3463 15.3994 12.2413Z" fill="#C8BA9B"/>
</svg>
