<svg width="20" height="20" viewBox="0 0 20 20" fill="none" xmlns="http://www.w3.org/2000/svg">
<path d="M16.3657 3.636C17.2014 4.47173 17.8644 5.46389 18.3167 6.55582C18.769 7.64776 19.0018 8.81809 19.0018 10C19.0018 11.1819 18.769 12.3522 18.3167 13.4442C17.8644 14.5361 17.2014 15.5283 16.3657 16.364M16.3657 16.364L13.5377 13.536M16.3657 16.364L19.0017 19M13.5377 13.536C14.0021 13.0717 14.3705 12.5204 14.6219 11.9137C14.8732 11.307 15.0026 10.6567 15.0026 10C15.0026 9.34328 14.8732 8.69299 14.6219 8.08628C14.3705 7.47956 14.0021 6.92831 13.5377 6.464M13.5377 13.536L10.7087 10.707M10.7087 10.707C10.8042 10.6148 10.8804 10.5044 10.9328 10.3824C10.9852 10.2604 11.0128 10.1292 11.0139 9.9964C11.0151 9.86362 10.9898 9.73194 10.9395 9.60905C10.8892 9.48615 10.815 9.3745 10.7211 9.28061C10.6272 9.18671 10.5155 9.11246 10.3926 9.06218C10.2697 9.0119 10.1381 8.9866 10.0053 8.98775C9.8725 8.9889 9.74128 9.01649 9.61928 9.0689C9.49727 9.12131 9.38693 9.19749 9.29468 9.293M10.7087 10.707L9.29468 9.293M6.46568 13.536C5.69928 12.7714 5.20289 11.7779 5.05168 10.706M3.63768 16.364C2.45189 15.1788 1.62072 13.686 1.23784 12.0538C0.854966 10.4216 0.935608 8.71485 1.47068 7.126M9.29468 9.293L1.00168 1" stroke="#DBAC29" stroke-width="2" stroke-linecap="round" stroke-linejoin="round"/>
</svg>
