<svg width="75" height="75" viewBox="0 0 75 75" fill="none" xmlns="http://www.w3.org/2000/svg">
<path d="M26.125 46.5156L34.4406 31.8344V28.9969H23.1125V31.4187H31.6594L31.7531 31.6531L23.9562 45.2531L26.125 46.5156ZM44.8375 46.5156C47.0667 46.5156 48.8146 45.6573 50.0812 43.9406C51.35 42.224 51.9844 40.0771 51.9844 37.5C51.9844 34.9229 51.3396 32.7771 50.05 31.0625C48.7604 29.3479 47.0281 28.4885 44.8531 28.4844C42.624 28.4844 40.875 29.3427 39.6062 31.0594C38.3396 32.776 37.7062 34.9229 37.7062 37.5C37.7062 40.0771 38.3375 42.2229 39.6 43.9375C40.8625 45.6521 42.6083 46.5115 44.8375 46.5156ZM44.8438 44.0938C43.3688 44.0938 42.2229 43.5115 41.4062 42.3469C40.5896 41.1823 40.1812 39.5667 40.1812 37.5C40.1812 35.5688 40.5979 33.9875 41.4313 32.7563C42.2646 31.525 43.4021 30.9094 44.8438 30.9094C46.2854 30.9094 47.4229 31.524 48.2563 32.7531C49.0896 33.9823 49.5062 35.5646 49.5062 37.5C49.5062 39.5667 49.0979 41.1823 48.2812 42.3469C47.4646 43.5115 46.3188 44.0938 44.8438 44.0938ZM37.5094 65.625C33.6219 65.625 29.9656 64.8875 26.5406 63.4125C23.1177 61.9354 20.1396 59.9313 17.6062 57.4C15.0729 54.8688 13.0677 51.8937 11.5906 48.475C10.1135 45.0563 9.375 41.401 9.375 37.5094C9.375 33.6177 10.1135 29.9615 11.5906 26.5406C13.0656 23.1177 15.0667 20.1396 17.5938 17.6062C20.1208 15.0729 23.0969 13.0677 26.5219 11.5906C29.9469 10.1135 33.6031 9.375 37.4906 9.375C41.3781 9.375 45.0344 10.1135 48.4594 11.5906C51.8823 13.0656 54.8604 15.0677 57.3937 17.5969C59.9271 20.126 61.9323 23.1021 63.4094 26.525C64.8865 29.9479 65.625 33.6031 65.625 37.4906C65.625 41.3781 64.8875 45.0344 63.4125 48.4594C61.9375 51.8844 59.9333 54.8625 57.4 57.3937C54.8667 59.925 51.8917 61.9302 48.475 63.4094C45.0583 64.8885 41.4031 65.6271 37.5094 65.625Z" fill="#C8BA9B"/>
</svg>
