<svg width="22" height="22" viewBox="0 0 22 22" fill="none" xmlns="http://www.w3.org/2000/svg">
<path d="M19.8404 21.73L17.1104 19H16.0004C14.9004 19 14.0004 18.1 14.0004 17V15.89L11.6604 13.55L10.8104 14.04C9.86035 14.59 8.63035 14.26 8.08035 13.31L6.58035 10.71C6.18035 9.99998 6.25035 9.17998 6.68035 8.56998L0.110352 1.99998L1.39035 0.72998L21.1104 20.46L19.8404 21.73ZM17.5004 12C17.5004 11.43 17.3004 10.9 16.9704 10.5L18.9404 9.34998C19.9504 8.75998 20.3004 7.46998 19.7104 6.45998L18.3304 4.05998C18.049 3.57499 17.5873 3.22086 17.046 3.07475C16.5047 2.92865 15.9275 3.00242 15.4404 3.27998L9.77035 6.56998L16.8604 13.66C17.2604 13.22 17.5004 12.64 17.5004 12ZM1.00035 11.62L4.50035 17.68L7.03035 14.5L5.03035 11.03L1.00035 11.62Z" fill="#DBAC29"/>
</svg>
