<svg width="23" height="21" viewBox="0 0 23 21" fill="none" xmlns="http://www.w3.org/2000/svg">
<path d="M0 5V2C0 1.45 0.196 0.979333 0.588 0.588C0.98 0.196667 1.45067 0.000666667 2 0H5V2H2V5H0ZM5 20H2C1.45 20 0.979333 19.8043 0.588 19.413C0.196667 19.0217 0.000666667 18.5507 0 18V15H2V18H5V20ZM18 5V2H15V0H18C18.55 0 19.021 0.196 19.413 0.588C19.805 0.98 20.0007 1.45067 20 2V5H18ZM11.5 7.5C10.95 7.5 10.4793 7.30433 10.088 6.913C9.69667 6.52167 9.50067 6.05067 9.5 5.5C9.49933 4.94933 9.69533 4.47867 10.088 4.088C10.4807 3.69733 10.9513 3.50133 11.5 3.5C12.0487 3.49867 12.5197 3.69467 12.913 4.088C13.3063 4.48133 13.502 4.952 13.5 5.5C13.498 6.048 13.3023 6.519 12.913 6.913C12.5237 7.307 12.0527 7.50267 11.5 7.5ZM6.8 16L7.8 10.9L6 11.6V15H4V10.3L7.95 8.6C8.53333 8.35 8.96267 8.18767 9.238 8.113C9.51333 8.03833 9.76733 8.00067 10 8C10.35 8 10.675 8.09167 10.975 8.275C11.275 8.45833 11.5167 8.7 11.7 9L12.7 10.6C12.8833 10.8833 13.0833 11.146 13.3 11.388C13.5167 11.63 13.7667 11.8507 14.05 12.05L13.025 13.825C12.7417 13.6417 12.4707 13.4377 12.212 13.213C11.9533 12.9883 11.716 12.7507 11.5 12.5L10.8 16H6.8ZM13 21C12.6167 21 12.3293 20.8333 12.138 20.5C11.9467 20.1667 11.9423 19.8333 12.125 19.5L16.125 12.5C16.3417 12.1833 16.6417 12.0083 17.025 11.975C17.4083 11.9417 17.6917 12.1167 17.875 12.5L21.875 19.5C22.0917 19.8333 22.0917 20.1667 21.875 20.5C21.6583 20.8333 21.3667 21 21 21H13ZM17 20C17.1333 20 17.25 19.95 17.35 19.85C17.45 19.75 17.5 19.6333 17.5 19.5C17.5 19.3667 17.45 19.25 17.35 19.15C17.25 19.05 17.1333 19 17 19C16.8667 19 16.75 19.05 16.65 19.15C16.55 19.25 16.5 19.3667 16.5 19.5C16.5 19.6333 16.55 19.75 16.65 19.85C16.75 19.95 16.8667 20 17 20ZM16.5 18H17.5V14H16.5V18Z" fill="#AE1916"/>
</svg>
