<svg width="20" height="20" viewBox="0 0 20 20" fill="none" xmlns="http://www.w3.org/2000/svg">
<path d="M0 5V2C0 1.45 0.196 0.979333 0.588 0.588C0.98 0.196667 1.45067 0.000666667 2 0H5V2H2V5H0ZM5 20H2C1.45 20 0.979333 19.8043 0.588 19.413C0.196667 19.0217 0.000666667 18.5507 0 18V15H2V18H5V20ZM15 20V18H18V15H20V18C20 18.55 19.8043 19.021 19.413 19.413C19.0217 19.805 18.5507 20.0007 18 20H15ZM18 5V2H15V0H18C18.55 0 19.021 0.196 19.413 0.588C19.805 0.98 20.0007 1.45067 20 2V5H18ZM11.5 7.5C10.95 7.5 10.4793 7.30433 10.088 6.913C9.69667 6.52167 9.50067 6.05067 9.5 5.5C9.49933 4.94933 9.69533 4.47867 10.088 4.088C10.4807 3.69733 10.9513 3.50133 11.5 3.5C12.0487 3.49867 12.5197 3.69467 12.913 4.088C13.3063 4.48133 13.502 4.952 13.5 5.5C13.498 6.048 13.3023 6.519 12.913 6.913C12.5237 7.307 12.0527 7.50267 11.5 7.5ZM10.8 16H6.8L7.8 10.9L6 11.6V15H4V10.3L7.95 8.6C8.53333 8.35 8.96267 8.18767 9.238 8.113C9.51333 8.03833 9.76733 8.00067 10 8C10.35 8 10.675 8.09167 10.975 8.275C11.275 8.45833 11.5167 8.7 11.7 9L12.7 10.6C13.1333 11.3 13.721 11.875 14.463 12.325C15.205 12.775 16.0507 13 17 13V15C15.9 15 14.8707 14.771 13.912 14.313C12.9533 13.855 12.1493 13.2507 11.5 12.5L10.8 16Z" fill="#DBAC29"/>
</svg>
